<?xml version="1.0" standalone="no"?><!DOCTYPE svg PUBLIC "-//W3C//DTD SVG 1.1//EN" "http://www.w3.org/Graphics/SVG/1.1/DTD/svg11.dtd"><svg t="1555326835886" class="icon" style="" viewBox="0 0 1024 1024" version="1.1" xmlns="http://www.w3.org/2000/svg" p-id="1680" xmlns:xlink="http://www.w3.org/1999/xlink" width="32" height="32"><defs><style type="text/css"></style></defs><path d="M355.232 576c14.88-73.056 79.392-128 156.8-128 77.408 0 141.92 54.944 156.768 128l64 0c-15.68-108.256-108.16-192-220.768-192-112.544 0-205.088 83.744-220.736 192L355.232 576zM512.032 320c17.664 0 32-14.336 32-32l0-64c0-17.664-14.336-32-32-32-17.664 0-32 14.336-32 32l0 64C480.032 305.664 494.368 320 512.032 320zM806.144 313.824c-12.512-12.512-32.736-12.512-45.248 0l-45.248 45.248c-12.512 12.512-12.512 32.736 0 45.248 12.512 12.512 32.768 12.512 45.248 0l45.248-45.248C818.656 346.592 818.656 326.336 806.144 313.824zM308.352 359.072l-45.248-45.248c-12.512-12.512-32.736-12.512-45.248 0-12.512 12.512-12.512 32.736 0 45.248l45.248 45.248c12.512 12.512 32.768 12.512 45.248 0C320.864 391.84 320.864 371.584 308.352 359.072zM704.032 640l-384 0c-17.664 0-32 14.336-32 32s14.336 32 32 32l384 0c17.664 0 32-14.336 32-32S721.696 640 704.032 640zM640.032 768l-256 0c-17.664 0-32 14.336-32 32s14.336 32 32 32l256 0c17.664 0 32-14.336 32-32S657.696 768 640.032 768z" p-id="1681"></path></svg>